<mxfile host="app.diagrams.net" agent="Mozilla/5.0 (X11; Ubuntu; Linux x86_64; rv:133.0) Gecko/20100101 Firefox/133.0" version="26.0.4">
  <diagram name="Page-1" id="sKSC2xd7FDJh8ssMwyUf">
    <mxGraphModel dx="3284" dy="1555" grid="0" gridSize="10" guides="1" tooltips="1" connect="1" arrows="1" fold="1" page="0" pageScale="1" pageWidth="1920" pageHeight="1080" backgroundImage="{&quot;src&quot;:&quot;https://images.wallpaperscraft.com/image/single/background_bright_ripple_60117_1920x1080.jpg&quot;,&quot;width&quot;:&quot;1920&quot;,&quot;height&quot;:&quot;1080&quot;,&quot;x&quot;:0,&quot;y&quot;:0}" math="0" shadow="0">
      <root>
        <mxCell id="0" />
        <mxCell id="1" parent="0" />
        <mxCell id="0AC84NXiA8-YsifmVdrE-1" value="" style="shape=image;verticalLabelPosition=bottom;labelBackgroundColor=default;verticalAlign=top;aspect=fixed;imageAspect=0;image=https://download.logo.wine/logo/Tesla%2C_Inc./Tesla%2C_Inc.-Logo.wine.png;" parent="1" vertex="1">
          <mxGeometry x="-126" y="-44" width="835.5" height="557" as="geometry" />
        </mxCell>
        <mxCell id="0AC84NXiA8-YsifmVdrE-2" value="" style="shape=image;verticalLabelPosition=bottom;labelBackgroundColor=default;verticalAlign=top;aspect=fixed;imageAspect=0;image=https://images.crunchbase.com/image/upload/c_pad,f_auto,q_auto:eco,dpr_1/v1456382245/e0b9yxvlvulgu7dtvgio.png;" parent="1" vertex="1">
          <mxGeometry x="502" y="40" width="503.16" height="400" as="geometry" />
        </mxCell>
        <mxCell id="0AC84NXiA8-YsifmVdrE-4" value="" style="shape=image;verticalLabelPosition=bottom;labelBackgroundColor=default;verticalAlign=top;aspect=fixed;imageAspect=0;image=https://upload.wikimedia.org/wikipedia/commons/thumb/1/1c/Alstom_logo.svg/2560px-Alstom_logo.svg.png;" parent="1" vertex="1">
          <mxGeometry x="65" y="467" width="775.82" height="214" as="geometry" />
        </mxCell>
        <mxCell id="0AC84NXiA8-YsifmVdrE-5" value="" style="shape=image;verticalLabelPosition=bottom;labelBackgroundColor=default;verticalAlign=top;aspect=fixed;imageAspect=0;image=https://1000logos.net/wp-content/uploads/2020/09/Milwaukee-Logo.png;" parent="1" vertex="1">
          <mxGeometry x="1360" y="10.120000000000001" width="547" height="341.88" as="geometry" />
        </mxCell>
        <mxCell id="0AC84NXiA8-YsifmVdrE-6" value="" style="shape=image;verticalLabelPosition=bottom;labelBackgroundColor=default;verticalAlign=top;aspect=fixed;imageAspect=0;image=https://upload.wikimedia.org/wikipedia/commons/thumb/8/89/National_Highway_Traffic_Safety_Administration_logo.svg/1200px-National_Highway_Traffic_Safety_Administration_logo.svg.png;" parent="1" vertex="1">
          <mxGeometry x="956" y="839" width="814.54" height="200.24" as="geometry" />
        </mxCell>
        <mxCell id="0AC84NXiA8-YsifmVdrE-17" value="" style="shape=image;verticalLabelPosition=bottom;labelBackgroundColor=default;verticalAlign=top;aspect=fixed;imageAspect=0;image=https://upload.wikimedia.org/wikipedia/commons/e/e3/Intuitive_Machines_dark-on-light.svg;" parent="1" vertex="1">
          <mxGeometry x="1207" y="337" width="619" height="226.45" as="geometry" />
        </mxCell>
        <mxCell id="0AC84NXiA8-YsifmVdrE-21" value="" style="shape=image;verticalLabelPosition=bottom;labelBackgroundColor=default;verticalAlign=top;aspect=fixed;imageAspect=0;image=https://wallpapers.com/images/hd/michelin-man-logo-3w2mezjqahp35e6b.jpg;" parent="1" vertex="1">
          <mxGeometry x="1325" y="533" width="566" height="318.37" as="geometry" />
        </mxCell>
        <mxCell id="0AC84NXiA8-YsifmVdrE-22" value="" style="shape=image;verticalLabelPosition=bottom;labelBackgroundColor=default;verticalAlign=top;aspect=fixed;imageAspect=0;image=https://upload.wikimedia.org/wikipedia/commons/thumb/1/10/Seal_of_the_United_States_Department_of_Defense_%28blue%29.svg/1024px-Seal_of_the_United_States_Department_of_Defense_%28blue%29.svg.png;" parent="1" vertex="1">
          <mxGeometry x="24" y="752" width="257" height="257" as="geometry" />
        </mxCell>
        <mxCell id="0AC84NXiA8-YsifmVdrE-23" value="" style="shape=image;verticalLabelPosition=bottom;labelBackgroundColor=default;verticalAlign=top;aspect=fixed;imageAspect=0;image=https://static.vecteezy.com/system/resources/previews/027/127/482/non_2x/nasa-logo-nasa-icon-transparent-free-png.png;" parent="1" vertex="1">
          <mxGeometry x="928" y="-19" width="464" height="464" as="geometry" />
        </mxCell>
        <mxCell id="0AC84NXiA8-YsifmVdrE-24" value="" style="shape=image;verticalLabelPosition=bottom;labelBackgroundColor=default;verticalAlign=top;aspect=fixed;imageAspect=0;image=https://cdn.freebiesupply.com/logos/large/2x/the-university-of-wisconsin-madison-logo-svg-vector.svg;" parent="1" vertex="1">
          <mxGeometry x="823" y="352" width="607" height="607" as="geometry" />
        </mxCell>
        <mxCell id="0AC84NXiA8-YsifmVdrE-25" value="" style="shape=image;verticalLabelPosition=bottom;labelBackgroundColor=default;verticalAlign=top;aspect=fixed;imageAspect=0;image=https://upload.wikimedia.org/wikipedia/commons/thumb/f/fa/Emblem_of_the_U.S._Department_of_the_Army.svg/2000px-Emblem_of_the_U.S._Department_of_the_Army.svg.png;" parent="1" vertex="1">
          <mxGeometry x="324" y="752" width="251.18" height="251.18" as="geometry" />
        </mxCell>
        <mxCell id="dmJSb_BqXiqma5-aoc_n-1" value="" style="shape=image;verticalLabelPosition=bottom;labelBackgroundColor=default;verticalAlign=top;aspect=fixed;imageAspect=0;image=https://upload.wikimedia.org/wikipedia/commons/thumb/4/4a/United_States_Department_of_Transportation_seal.svg/1200px-United_States_Department_of_Transportation_seal.svg.png;" vertex="1" parent="1">
          <mxGeometry x="615" y="751" width="257.92" height="259" as="geometry" />
        </mxCell>
      </root>
    </mxGraphModel>
  </diagram>
</mxfile>
